<?xml version="1.0" encoding="UTF-8"?>
<svg xmlns="http://www.w3.org/2000/svg" viewBox="0 0 712 711" width="712" height="711">
<path d="M362.5 27C363.49 31.96 363 37.39 363 42.5C363 51.5 363 60.5 363 69.5C363 98.17 363 126.83 363 155.5C363 244.83 363 334.17 363 423.5C363 442.83 363 462.17 363 481.5C363 491.1 364.47 502.1 361.81 511.31C361.13 513.66 359.39 515.73 358.5 518C351.42 536.09 335.95 548.03 319 556.5C320.45 557.89 318.01 556.75 319.72 557.78C321.23 558.69 324.78 558 326.5 558C330.99 558 336.04 558.66 340.47 557.97C341.9 557.74 343.02 557.13 344.5 557C348.86 556.6 353.03 556.67 357.31 555.81C360.13 555.25 362.87 553.75 365.69 553.19C366.87 552.95 368.17 553.19 369.31 552.81C370.27 552.49 370.75 551.55 371.69 551.19C372.53 550.87 373.47 551.13 374.31 550.81C375.24 550.46 375.8 549.62 376.69 549.19C379.8 547.67 383.33 546.73 386.34 544.84C398.95 536.94 408.82 526.14 415.53 513.03C417.92 508.36 420.53 503.53 421.81 498.31C426.23 480.4 426 463.13 426 444.5C426 424.83 426 405.17 426 385.5C426 317.34 426 249.18 426 181.01C443.83 181.01 461.67 181.01 479.5 181.01C481.6 191.46 480 203.77 480 214.5C480 236.17 480 257.83 480 279.5C480 330.5 480 381.5 480 432.5C480 443.5 480 454.5 480 465.5C480 470.31 480.71 475.73 479.97 480.47C476.46 502.89 471.22 525.13 457.47 543.97C440.7 566.95 423.3 577.61 398.31 589.81C394.43 591.71 381.64 595.91 377.31 596.81C372.82 597.74 367.74 597.59 364 600.5C361.37 606.02 363 618.93 363 625.5C363 644.5 363 663.5 363 682.5C355 684.1 345.39 683.27 337.47 682.03C330.26 680.9 322.74 682.1 315.53 680.97C301.51 678.77 287.61 675.7 273.69 672.81C270.11 672.07 266.79 670.19 263.31 669.19C139.9 633.57 51.71 527.13 32.03 401.47C31.21 396.21 31.79 390.79 30.97 385.53C27.93 366.12 27.93 344.88 30.97 325.47C31.38 322.87 30.62 320.13 31.03 317.53C32.9 305.57 34.72 293.58 37.19 281.69C37.49 280.22 38.51 278.78 38.81 277.31C43.16 256.35 51.73 236.86 59.5 217C62.13 210.28 66.04 203.41 69.84 197.34C74 190.72 77.31 183.62 81.53 177.03C87.99 166.96 95.51 157.66 102.53 148.03C106.15 143.07 111.13 139.27 115 134.5C127.73 118.81 143.74 105.31 159.97 93.47C167.88 87.69 175.75 81.84 184.03 76.53C187.96 74.01 192.39 72.32 196.34 69.84C205.24 64.27 214.5 59.55 224.31 55.81C226.87 54.84 229.13 53.16 231.69 52.19C242.73 47.98 254.18 43.03 265.69 40.19C297.46 32.35 329.33 27 362.5 27ZM121.14 475.97C121.32 478.62 121.51 481.26 121.69 483.9C123.15 496.13 124.8 511.79 129.19 523.31C129.55 524.25 130.45 524.75 130.81 525.69C131.48 527.44 131.33 529.57 132.19 531.31C137.32 541.82 143.63 551.51 150.53 560.97C152.81 564.09 156.26 566.76 159 569.5C183.33 593.83 216.59 605.56 249.97 609.27C250.99 609.46 252.01 609.64 253.04 609.82C265.58 610.73 277.6 611.09 290.12 609.71C291.11 609.56 292.09 609.4 293.08 609.25C303.34 608.2 312.97 605.66 323 603.5C321.68 603.24 320.36 602.98 319.05 602.72C316.68 602.52 314.31 602.31 311.94 602.1C310.61 601.98 309.29 601.85 307.97 601.73C306.99 601.56 306.01 601.39 305.03 601.22C262.27 597.52 218.36 575.18 196.47 537.03C194.75 534.03 192.03 531.33 190.16 528.34C184.52 519.36 178.63 502.77 177.88 492.32C177.68 491.25 177.48 490.17 177.28 489.1C177.12 486.42 176.95 483.74 176.79 481.06C176.62 480.02 176.46 478.99 176.3 477.96C176.03 380.97 175.77 283.99 175.5 187C157.33 187.17 139.17 187.33 121 187.5C121.05 283.66 121.09 379.82 121.14 475.97ZM334.06 189.08C333.04 189.08 332.02 189.09 331 189.1C329.69 189.3 328.37 189.5 327.06 189.71C325.07 190.16 323.08 190.61 321.1 191.06C319.9 191.11 318.7 191.17 317.5 191.23C317.35 191.53 317.2 191.83 317.04 192.13C315.77 192.44 314.49 192.75 313.21 193.06C312.19 193.38 311.17 193.7 310.16 194.02C302.72 197.22 294.61 199.52 287 202.5C277.01 206.41 268.82 213.61 259.29 218.29C258.62 218.83 257.95 219.37 257.29 219.91C250.17 225.36 243.28 231.08 237 237.5C233.9 240.67 231.36 244.49 227.91 247.29C227.37 247.98 226.83 248.67 226.28 249.36C224.85 251.31 223.41 253.27 221.98 255.23C221.39 255.92 220.81 256.62 220.22 257.32C218.48 261.14 215.37 264.29 213.22 267.72C212.57 268.75 212.52 270.24 211.84 271.34C209.53 275.11 207.09 278.78 205.19 282.69C204.51 284.08 204.49 285.92 203.81 287.31C202.29 290.42 200.04 293.23 199.19 296.69C198.35 300.07 197.53 303.91 195.94 307.01C195.66 308.03 195.37 309.05 195.09 310.07C194.29 312.76 193.48 315.46 192.68 318.15C192.51 319.1 192.33 320.05 192.15 321C192.16 321.65 192.17 322.29 192.17 322.94C191.82 323.13 191.47 323.31 191.12 323.5C191.11 324.7 191.11 325.91 191.1 327.11C191.08 328.11 191.06 329.11 191.04 330.11C190.72 331.83 190.4 333.55 190.08 335.28C189.96 335.86 189.83 336.44 189.7 337.02C189.53 338.7 189.37 340.37 189.21 342.04C189.18 350.66 189.16 359.27 189.13 367.88C189.33 369.64 189.53 371.4 189.73 373.16C189.84 373.65 189.95 374.14 190.06 374.63C190.34 376.43 190.63 378.22 190.91 380.02C190.98 380.98 191.05 381.95 191.12 382.91C191.2 384.44 191.28 385.97 191.37 387.5C191.63 387.63 191.9 387.76 192.16 387.89C192.11 388.43 192.05 388.96 192 389.5C192.71 391.87 193.41 394.24 194.12 396.61C194.37 397.65 194.62 398.69 194.87 399.73C196.27 402.03 196.41 404.62 197.19 407.31C199.1 413.95 202.15 421.1 205.19 427.31C212.16 441.6 221.25 454.51 231.24 466.67C231.95 467.35 232.66 468.02 233.37 468.7C238.76 472.38 245.06 481.11 251.03 485.47C264.35 495.19 278.02 504.84 293.69 510.81C296.16 511.76 298.84 512.24 301.31 513.19C305.98 514.97 311.19 517.08 316.05 517.8C316.2 518.12 316.35 518.44 316.5 518.76C317.36 518.79 318.22 518.82 319.08 518.86C321.45 519.35 323.81 519.84 326.17 520.33C327.11 520.51 328.06 520.69 329 520.86C329.67 520.85 330.34 520.84 331 520.83C331.17 521.16 331.33 521.49 331.5 521.83C333.43 521.87 335.35 521.91 337.28 521.95C338.69 522.3 340.09 522.65 341.5 523C342.01 522.93 342.52 522.86 343.03 522.8C344.02 522.83 345.01 522.86 346 522.89C347.56 522.24 349.12 521.59 350.68 520.93C350.99 520.62 351.65 520.73 351.89 520.35C353.26 518.09 351.98 504.89 351.99 501.5C352 483.17 351.97 464.83 351.99 446.5C352.07 387.17 351.99 327.83 351.99 268.5C351.99 251.83 352 235.17 351.99 218.5C351.98 213.04 353.4 201.44 351.19 197C350.62 194.33 350.06 191.67 349.5 189C348.9 188.62 348.29 188.23 347.69 187.85C347.62 187.72 347.56 187.59 347.5 187.46C345.63 187.56 343.77 187.65 341.9 187.75C341.73 187.83 341.57 187.92 341.4 188C341.1 187.76 340.8 187.53 340.5 187.29C338.5 187.61 336.5 187.93 334.5 188.26C334.35 188.53 334.21 188.8 334.06 189.08Z" fill="#ffffff" fill-rule="evenodd" stroke="#ffffff" stroke-width="0.25" stroke-linejoin="round"/>
<path d="M341.4 188C341.1 188.4 340.8 188.81 340.5 189.21C338.35 189.17 336.21 189.12 334.06 189.08C334.21 188.8 334.35 188.53 334.5 188.26C336.5 187.93 338.5 187.61 340.5 187.29C340.8 187.53 341.1 187.76 341.4 188ZM347.69 187.85C345.76 187.82 343.83 187.78 341.9 187.75C343.77 187.65 345.63 187.56 347.5 187.46C347.56 187.59 347.62 187.72 347.69 187.85ZM331 189.1C330.83 189.47 330.67 189.84 330.5 190.21C329.35 190.04 328.2 189.87 327.06 189.71C328.37 189.5 329.69 189.3 331 189.1ZM321.1 191.06C320.9 191.43 320.7 191.81 320.5 192.18C319.35 192.16 318.2 192.15 317.04 192.13C317.2 191.83 317.35 191.53 317.5 191.23C318.7 191.17 319.9 191.11 321.1 191.06ZM313.21 193.06C312.19 193.38 311.17 193.7 310.16 194.02C311.17 193.7 312.19 193.38 313.21 193.06ZM351.19 197C353.4 201.44 351.98 213.04 351.99 218.5C352 235.17 351.99 251.83 351.99 268.5C351.99 327.83 352.07 387.17 351.99 446.5C351.97 464.83 352 483.17 351.99 501.5C351.98 504.89 353.26 518.09 351.89 520.35C351.65 520.73 350.99 520.62 350.68 520.93C350.85 412.96 351.02 304.98 351.19 197ZM259.29 218.29C259.26 218.7 259.23 219.1 259.2 219.5C258.56 219.64 257.92 219.77 257.29 219.91C257.95 219.37 258.62 218.83 259.29 218.29ZM227.91 247.29C227.78 247.95 227.64 248.61 227.5 249.27C227.09 249.3 226.69 249.33 226.28 249.36C226.83 248.67 227.37 247.98 227.91 247.29ZM221.98 255.23C221.82 255.89 221.66 256.56 221.5 257.22C221.07 257.25 220.65 257.28 220.22 257.32C220.81 256.62 221.39 255.92 221.98 255.23ZM195.94 307.01C196.03 307.84 196.11 308.67 196.19 309.5C195.82 309.69 195.46 309.88 195.09 310.07C195.37 309.05 195.66 308.03 195.94 307.01ZM192.68 318.15C192.84 318.93 192.99 319.72 193.15 320.5C192.81 320.67 192.48 320.83 192.15 321C192.33 320.05 192.51 319.1 192.68 318.15ZM192.17 322.94C192.18 324.13 192.18 325.31 192.19 326.5C191.83 326.7 191.47 326.91 191.1 327.11C191.11 325.91 191.11 324.7 191.12 323.5C191.47 323.31 191.82 323.13 192.17 322.94ZM191.04 330.11C191.09 331.57 191.15 333.04 191.2 334.5C190.83 334.76 190.46 335.02 190.08 335.28C190.4 333.55 190.72 331.83 191.04 330.11ZM189.7 337.02C189.77 338.52 189.85 340.01 189.93 341.5C189.69 341.68 189.45 341.86 189.21 342.04C189.37 340.37 189.53 338.7 189.7 337.02ZM189.13 367.88C189.47 368.09 189.81 368.29 190.15 368.5C190.01 370.05 189.87 371.61 189.73 373.16C189.53 371.4 189.33 369.64 189.13 367.88ZM190.06 374.63C190.44 374.92 190.82 375.21 191.21 375.5C191.11 377.01 191.01 378.51 190.91 380.02C190.63 378.22 190.34 376.43 190.06 374.63ZM191.12 382.91C191.46 383.11 191.8 383.3 192.14 383.5C192.15 384.96 192.16 386.43 192.16 387.89C191.9 387.76 191.63 387.63 191.37 387.5C191.28 385.97 191.2 384.44 191.12 382.91ZM194.12 396.61C194.47 396.91 194.81 397.2 195.16 397.5C195.07 398.24 194.97 398.98 194.87 399.73C194.62 398.69 194.37 397.65 194.12 396.61ZM231.24 466.67C231.95 467.35 232.66 468.02 233.37 468.7C232.66 468.02 231.95 467.35 231.24 466.67ZM121.14 475.97C121.45 476.15 121.77 476.32 122.08 476.5C121.95 478.97 121.82 481.44 121.69 483.9C121.51 481.26 121.32 478.62 121.14 475.97ZM176.3 477.96C176.46 478.99 176.62 480.02 176.79 481.06C176.57 480.87 176.36 480.69 176.14 480.5C176.19 479.65 176.25 478.8 176.3 477.96ZM177.28 489.1C177.48 490.17 177.68 491.25 177.88 492.32C177.54 492.05 177.21 491.77 176.87 491.5C177.01 490.7 177.15 489.9 177.28 489.1ZM316.05 517.8C317.06 518.16 318.07 518.51 319.08 518.86C318.22 518.82 317.36 518.79 316.5 518.76C316.35 518.44 316.2 518.12 316.05 517.8ZM326.17 520.33C326.94 520.19 327.72 520.05 328.5 519.92C328.67 520.23 328.83 520.55 329 520.86C328.06 520.69 327.11 520.51 326.17 520.33ZM331 520.83C332.84 520.81 334.67 520.8 336.5 520.78C336.76 521.17 337.02 521.56 337.28 521.95C335.35 521.91 333.43 521.87 331.5 521.83C331.33 521.49 331.17 521.16 331 520.83ZM346 522.89C345.01 522.86 344.02 522.83 343.03 522.8C343.85 522.47 344.68 522.15 345.5 521.82C345.67 522.18 345.83 522.54 346 522.89ZM305.03 601.22C306.01 601.39 306.99 601.56 307.97 601.73C307.14 601.79 306.32 601.85 305.5 601.91C305.34 601.68 305.19 601.45 305.03 601.22ZM311.94 602.1C314.31 602.31 316.68 602.52 319.05 602.72C316.86 602.88 314.68 603.04 312.5 603.19C312.31 602.83 312.12 602.47 311.94 602.1ZM249.97 609.27C250.81 609.19 251.66 609.11 252.5 609.03C252.68 609.3 252.86 609.56 253.04 609.82C252.01 609.64 250.99 609.46 249.97 609.27ZM293.08 609.25C292.09 609.4 291.11 609.56 290.12 609.71C291.11 609.56 292.09 609.4 293.08 609.25Z" fill="#bbbbbb" fill-rule="evenodd" stroke="#bbbbbb" stroke-width="0.25" stroke-linejoin="round"/>
</svg>