<?xml version="1.0" encoding="UTF-8"?>
<svg xmlns="http://www.w3.org/2000/svg" viewBox="0 0 712 711" width="712" height="711">
<path d="M363.87 683.5C363.87 655.83 363.87 628.17 363.87 600.5C367.22 598 371.42 597.92 375.38 596.82C383.06 594.7 390.7 592.65 398.03 589.52C423.21 578.76 444.26 563.09 459.68 540.24C483.85 504.4 480.9 459.78 480.9 418.5C480.9 366.1 480.19 313.84 480.19 261.5C480.19 243.5 480.19 225.5 480.19 207.5C480.19 198.59 481.52 189.97 480.1 181.11C462.23 181.11 444.37 181.11 426.5 181.11C425.36 189.68 426.18 198.84 426.18 207.5C426.18 223.83 426.18 240.17 426.18 256.5C426.18 306.83 426.18 357.17 426.18 407.5C426.18 421.83 426.18 436.17 426.18 450.5C426.18 463.86 426.58 477.21 423.64 490.27C414.42 531.31 386.87 551.34 346.51 557.23C338.45 558.4 327.87 560.65 320.07 557.5C321.73 553.62 335.91 546.67 340.35 542.9C350.77 534.03 359.21 520.73 362.87 507.45C365.63 497.45 363.86 481.22 363.86 470.5C363.86 445.5 363.86 420.5 363.86 395.5C363.86 312.17 363.86 228.83 363.86 145.5C363.86 135.02 364.9 123.95 363.84 113.52C362.81 103.28 363.16 92.85 363.16 82.5C363.16 72.48 362.81 62.38 363.84 52.47C364.73 43.95 362.66 35 364.5 26.63C376.82 24.42 396.98 28.77 409.63 30.77C457.04 38.29 502.49 56.22 541.97 83.51C591.04 117.43 631.96 164.18 656.6 218.86C698.54 311.93 695.73 424.43 645.47 513.96C620.79 557.92 586.48 594.91 545.78 624.38C507.49 652.1 462.26 670.5 415.75 678.36C404.96 680.19 394.35 681.59 383.5 682.81C377.16 683.53 370.16 684.92 363.87 683.5ZM176.48 188.5C177.17 197.08 176.65 205.89 176.65 214.5C176.65 230.5 176.65 246.5 176.65 262.5C176.65 310.83 176.65 359.17 176.65 407.5C176.65 424.5 176.65 441.5 176.65 458.5C176.65 475.94 176.62 493.48 182.45 510.16C188.89 528.59 201.56 544.78 214.13 559.37C231.47 579.5 259.26 592.02 284.76 597.6C292.57 599.31 300.65 600.83 308.55 601.66C312.67 602.09 318.46 600.87 321.77 603.5C317.85 606.57 311.93 606.75 307.15 607.58C295.65 609.57 284.18 610.69 272.5 610.69C222.87 610.69 167.74 592.23 140.85 547.65C118.71 510.95 120.75 473.95 120.75 432.5C120.75 384.5 120.75 336.5 120.75 288.5C120.75 266.17 120.75 243.83 120.75 221.5C120.75 210.63 119.03 198.08 121.6 187.5C132.37 185.28 148.13 186.9 159.5 186.9C165.11 186.9 171.4 185.88 176.48 188.5ZM349.74 522.5C333.67 525.14 316.02 518.53 300.93 513.55C253.8 497.97 215.54 459.13 198.82 412.54C193.18 396.81 190.32 381 188.91 364.5C188.44 358.94 187.61 353.18 188.24 347.54C190.4 328.19 193.44 308.83 201.27 290.74C219.7 248.15 256.39 210.94 301.27 196.68C313.66 192.74 331.64 186.93 344.5 187.01C353.66 187.07 352.13 198.42 352.13 204.5C352.13 223.83 352.13 243.17 352.13 262.5C352.13 326.17 352.13 389.83 352.13 453.5C352.13 469.83 352.13 486.17 352.13 502.5C352.13 508.76 353.83 517.37 349.74 522.5Z" fill="#000000" fill-rule="evenodd" stroke="#000000" stroke-width="0.25" stroke-linejoin="round"/>
</svg>